<svg xmlns="http://www.w3.org/2000/svg" xmlns:xlink="http://www.w3.org/1999/xlink" width="500" zoomAndPan="magnify" viewBox="0 0 375 374.999991" height="500" preserveAspectRatio="xMidYMid meet" version="1.0"><defs><clipPath id="a75ebf0388"><path d="M 517.597656 226.371094 L 165.511719 534.6875 L -142.804688 182.597656 L 209.28125 -125.71875 Z M 517.597656 226.371094 " clip-rule="nonzero"/></clipPath><clipPath id="868458b92e"><path d="M 517.597656 226.371094 L 165.511719 534.6875 L -142.804688 182.597656 L 209.28125 -125.71875 Z M 517.597656 226.371094 " clip-rule="nonzero"/></clipPath><clipPath id="1e3f50fffe"><path d="M 517.597656 226.371094 L 165.511719 534.6875 L -142.804688 182.597656 L 209.28125 -125.71875 Z M 517.597656 226.371094 " clip-rule="nonzero"/></clipPath><linearGradient x1="-0.397028" gradientTransform="matrix(50.000001, 0.00000133433, -0.00000133433, 50.000001, 75.000007, 50.000005)" y1="-0.397028" x2="1.397027" gradientUnits="userSpaceOnUse" y2="1.397027" id="095202a370"><stop stop-opacity="1" stop-color="rgb(100%, 100%, 100%)" offset="0"/><stop stop-opacity="1" stop-color="rgb(100%, 100%, 100%)" offset="0.125"/><stop stop-opacity="1" stop-color="rgb(100%, 100%, 100%)" offset="0.1875"/><stop stop-opacity="1" stop-color="rgb(100%, 100%, 100%)" offset="0.21875"/><stop stop-opacity="1" stop-color="rgb(99.526978%, 99.919128%, 100%)" offset="0.222656"/><stop stop-opacity="1" stop-color="rgb(99.055481%, 99.839783%, 100%)" offset="0.226562"/><stop stop-opacity="1" stop-color="rgb(98.353577%, 99.720764%, 100%)" offset="0.230469"/><stop stop-opacity="1" stop-color="rgb(97.653198%, 99.603271%, 100%)" offset="0.234375"/><stop stop-opacity="1" stop-color="rgb(96.95282%, 99.484253%, 100%)" offset="0.238281"/><stop stop-opacity="1" stop-color="rgb(96.252441%, 99.36676%, 100%)" offset="0.242188"/><stop stop-opacity="1" stop-color="rgb(95.550537%, 99.249268%, 100%)" offset="0.246094"/><stop stop-opacity="1" stop-color="rgb(94.850159%, 99.131775%, 100%)" offset="0.25"/><stop stop-opacity="1" stop-color="rgb(94.14978%, 99.012756%, 100%)" offset="0.253906"/><stop stop-opacity="1" stop-color="rgb(93.449402%, 98.895264%, 100%)" offset="0.257812"/><stop stop-opacity="1" stop-color="rgb(92.747498%, 98.776245%, 100%)" offset="0.261719"/><stop stop-opacity="1" stop-color="rgb(92.047119%, 98.658752%, 100%)" offset="0.265625"/><stop stop-opacity="1" stop-color="rgb(91.346741%, 98.539734%, 100%)" offset="0.269531"/><stop stop-opacity="1" stop-color="rgb(90.646362%, 98.422241%, 100%)" offset="0.273438"/><stop stop-opacity="1" stop-color="rgb(89.944458%, 98.303223%, 100%)" offset="0.277344"/><stop stop-opacity="1" stop-color="rgb(89.24408%, 98.18573%, 100%)" offset="0.28125"/><stop stop-opacity="1" stop-color="rgb(88.543701%, 98.066711%, 100%)" offset="0.285156"/><stop stop-opacity="1" stop-color="rgb(87.843323%, 97.949219%, 100%)" offset="0.289062"/><stop stop-opacity="1" stop-color="rgb(87.141418%, 97.8302%, 100%)" offset="0.292969"/><stop stop-opacity="1" stop-color="rgb(86.44104%, 97.712708%, 100%)" offset="0.296875"/><stop stop-opacity="1" stop-color="rgb(85.739136%, 97.595215%, 100%)" offset="0.300781"/><stop stop-opacity="1" stop-color="rgb(85.038757%, 97.477722%, 100%)" offset="0.304688"/><stop stop-opacity="1" stop-color="rgb(84.338379%, 97.358704%, 100%)" offset="0.308594"/><stop stop-opacity="1" stop-color="rgb(83.638%, 97.241211%, 100%)" offset="0.3125"/><stop stop-opacity="1" stop-color="rgb(82.936096%, 97.122192%, 100%)" offset="0.316406"/><stop stop-opacity="1" stop-color="rgb(82.235718%, 97.0047%, 100%)" offset="0.320312"/><stop stop-opacity="1" stop-color="rgb(81.535339%, 96.885681%, 100%)" offset="0.324219"/><stop stop-opacity="1" stop-color="rgb(80.834961%, 96.768188%, 100%)" offset="0.328125"/><stop stop-opacity="1" stop-color="rgb(80.133057%, 96.64917%, 100%)" offset="0.332031"/><stop stop-opacity="1" stop-color="rgb(79.432678%, 96.531677%, 100%)" offset="0.335938"/><stop stop-opacity="1" stop-color="rgb(78.7323%, 96.412659%, 100%)" offset="0.339844"/><stop stop-opacity="1" stop-color="rgb(78.031921%, 96.295166%, 100%)" offset="0.34375"/><stop stop-opacity="1" stop-color="rgb(77.330017%, 96.176147%, 100%)" offset="0.347656"/><stop stop-opacity="1" stop-color="rgb(76.629639%, 96.058655%, 100%)" offset="0.351562"/><stop stop-opacity="1" stop-color="rgb(75.92926%, 95.939636%, 100%)" offset="0.355469"/><stop stop-opacity="1" stop-color="rgb(75.228882%, 95.822144%, 100%)" offset="0.359375"/><stop stop-opacity="1" stop-color="rgb(74.526978%, 95.704651%, 100%)" offset="0.363281"/><stop stop-opacity="1" stop-color="rgb(73.826599%, 95.587158%, 100%)" offset="0.367188"/><stop stop-opacity="1" stop-color="rgb(73.124695%, 95.46814%, 100%)" offset="0.371094"/><stop stop-opacity="1" stop-color="rgb(72.424316%, 95.350647%, 100%)" offset="0.375"/><stop stop-opacity="1" stop-color="rgb(71.723938%, 95.231628%, 100%)" offset="0.378906"/><stop stop-opacity="1" stop-color="rgb(71.02356%, 95.114136%, 100%)" offset="0.382812"/><stop stop-opacity="1" stop-color="rgb(70.321655%, 94.995117%, 100%)" offset="0.386719"/><stop stop-opacity="1" stop-color="rgb(69.621277%, 94.877625%, 100%)" offset="0.390625"/><stop stop-opacity="1" stop-color="rgb(68.920898%, 94.758606%, 100%)" offset="0.394531"/><stop stop-opacity="1" stop-color="rgb(68.22052%, 94.641113%, 100%)" offset="0.398438"/><stop stop-opacity="1" stop-color="rgb(67.518616%, 94.522095%, 100%)" offset="0.402344"/><stop stop-opacity="1" stop-color="rgb(66.818237%, 94.404602%, 100%)" offset="0.40625"/><stop stop-opacity="1" stop-color="rgb(66.117859%, 94.285583%, 100%)" offset="0.410156"/><stop stop-opacity="1" stop-color="rgb(65.41748%, 94.168091%, 100%)" offset="0.414063"/><stop stop-opacity="1" stop-color="rgb(64.715576%, 94.050598%, 100%)" offset="0.417969"/><stop stop-opacity="1" stop-color="rgb(64.015198%, 93.933105%, 100%)" offset="0.421875"/><stop stop-opacity="1" stop-color="rgb(63.314819%, 93.814087%, 100%)" offset="0.425781"/><stop stop-opacity="1" stop-color="rgb(62.614441%, 93.696594%, 100%)" offset="0.429688"/><stop stop-opacity="1" stop-color="rgb(61.912537%, 93.577576%, 100%)" offset="0.433594"/><stop stop-opacity="1" stop-color="rgb(61.212158%, 93.460083%, 100%)" offset="0.4375"/><stop stop-opacity="1" stop-color="rgb(60.510254%, 93.341064%, 100%)" offset="0.441406"/><stop stop-opacity="1" stop-color="rgb(59.809875%, 93.223572%, 100%)" offset="0.445313"/><stop stop-opacity="1" stop-color="rgb(59.109497%, 93.104553%, 100%)" offset="0.449219"/><stop stop-opacity="1" stop-color="rgb(58.409119%, 92.987061%, 100%)" offset="0.453125"/><stop stop-opacity="1" stop-color="rgb(57.707214%, 92.868042%, 100%)" offset="0.457031"/><stop stop-opacity="1" stop-color="rgb(57.006836%, 92.750549%, 100%)" offset="0.460938"/><stop stop-opacity="1" stop-color="rgb(56.306458%, 92.631531%, 100%)" offset="0.464844"/><stop stop-opacity="1" stop-color="rgb(55.606079%, 92.514038%, 100%)" offset="0.46875"/><stop stop-opacity="1" stop-color="rgb(54.904175%, 92.39502%, 100%)" offset="0.472656"/><stop stop-opacity="1" stop-color="rgb(54.203796%, 92.277527%, 100%)" offset="0.476563"/><stop stop-opacity="1" stop-color="rgb(53.503418%, 92.160034%, 100%)" offset="0.480469"/><stop stop-opacity="1" stop-color="rgb(52.80304%, 92.042542%, 100%)" offset="0.484375"/><stop stop-opacity="1" stop-color="rgb(52.101135%, 91.923523%, 100%)" offset="0.488281"/><stop stop-opacity="1" stop-color="rgb(51.400757%, 91.80603%, 100%)" offset="0.492187"/><stop stop-opacity="1" stop-color="rgb(50.700378%, 91.687012%, 100%)" offset="0.496094"/><stop stop-opacity="1" stop-color="rgb(50%, 91.569519%, 100%)" offset="0.5"/><stop stop-opacity="1" stop-color="rgb(49.298096%, 91.4505%, 100%)" offset="0.503906"/><stop stop-opacity="1" stop-color="rgb(48.597717%, 91.333008%, 100%)" offset="0.507812"/><stop stop-opacity="1" stop-color="rgb(47.895813%, 91.213989%, 100%)" offset="0.511719"/><stop stop-opacity="1" stop-color="rgb(47.195435%, 91.096497%, 100%)" offset="0.515625"/><stop stop-opacity="1" stop-color="rgb(46.495056%, 90.977478%, 100%)" offset="0.519531"/><stop stop-opacity="1" stop-color="rgb(45.794678%, 90.859985%, 100%)" offset="0.523438"/><stop stop-opacity="1" stop-color="rgb(45.092773%, 90.740967%, 100%)" offset="0.527344"/><stop stop-opacity="1" stop-color="rgb(44.392395%, 90.623474%, 100%)" offset="0.53125"/><stop stop-opacity="1" stop-color="rgb(43.692017%, 90.504456%, 100%)" offset="0.535156"/><stop stop-opacity="1" stop-color="rgb(42.991638%, 90.386963%, 100%)" offset="0.539062"/><stop stop-opacity="1" stop-color="rgb(42.289734%, 90.26947%, 100%)" offset="0.542969"/><stop stop-opacity="1" stop-color="rgb(41.589355%, 90.151978%, 100%)" offset="0.546875"/><stop stop-opacity="1" stop-color="rgb(40.888977%, 90.032959%, 100%)" offset="0.550781"/><stop stop-opacity="1" stop-color="rgb(40.188599%, 89.915466%, 100%)" offset="0.554688"/><stop stop-opacity="1" stop-color="rgb(39.486694%, 89.796448%, 100%)" offset="0.558594"/><stop stop-opacity="1" stop-color="rgb(38.786316%, 89.678955%, 100%)" offset="0.5625"/><stop stop-opacity="1" stop-color="rgb(38.085938%, 89.559937%, 100%)" offset="0.566406"/><stop stop-opacity="1" stop-color="rgb(37.385559%, 89.442444%, 100%)" offset="0.570312"/><stop stop-opacity="1" stop-color="rgb(36.683655%, 89.323425%, 100%)" offset="0.574219"/><stop stop-opacity="1" stop-color="rgb(35.983276%, 89.205933%, 100%)" offset="0.578125"/><stop stop-opacity="1" stop-color="rgb(35.281372%, 89.086914%, 100%)" offset="0.582031"/><stop stop-opacity="1" stop-color="rgb(34.580994%, 88.969421%, 100%)" offset="0.585938"/><stop stop-opacity="1" stop-color="rgb(33.880615%, 88.850403%, 100%)" offset="0.589844"/><stop stop-opacity="1" stop-color="rgb(33.180237%, 88.73291%, 100%)" offset="0.59375"/><stop stop-opacity="1" stop-color="rgb(32.478333%, 88.615417%, 100%)" offset="0.597656"/><stop stop-opacity="1" stop-color="rgb(31.777954%, 88.497925%, 100%)" offset="0.601562"/><stop stop-opacity="1" stop-color="rgb(31.077576%, 88.378906%, 100%)" offset="0.605469"/><stop stop-opacity="1" stop-color="rgb(30.377197%, 88.261414%, 100%)" offset="0.609375"/><stop stop-opacity="1" stop-color="rgb(29.675293%, 88.142395%, 100%)" offset="0.613281"/><stop stop-opacity="1" stop-color="rgb(28.974915%, 88.024902%, 100%)" offset="0.617187"/><stop stop-opacity="1" stop-color="rgb(28.274536%, 87.905884%, 100%)" offset="0.621094"/><stop stop-opacity="1" stop-color="rgb(27.574158%, 87.788391%, 100%)" offset="0.625"/><stop stop-opacity="1" stop-color="rgb(26.872253%, 87.669373%, 100%)" offset="0.628906"/><stop stop-opacity="1" stop-color="rgb(26.171875%, 87.55188%, 100%)" offset="0.632812"/><stop stop-opacity="1" stop-color="rgb(25.471497%, 87.432861%, 100%)" offset="0.636719"/><stop stop-opacity="1" stop-color="rgb(24.771118%, 87.315369%, 100%)" offset="0.640625"/><stop stop-opacity="1" stop-color="rgb(24.069214%, 87.19635%, 100%)" offset="0.644531"/><stop stop-opacity="1" stop-color="rgb(23.368835%, 87.078857%, 100%)" offset="0.648437"/><stop stop-opacity="1" stop-color="rgb(22.666931%, 86.959839%, 100%)" offset="0.652344"/><stop stop-opacity="1" stop-color="rgb(21.966553%, 86.842346%, 100%)" offset="0.65625"/><stop stop-opacity="1" stop-color="rgb(21.266174%, 86.724854%, 100%)" offset="0.660156"/><stop stop-opacity="1" stop-color="rgb(20.565796%, 86.607361%, 100%)" offset="0.664062"/><stop stop-opacity="1" stop-color="rgb(19.863892%, 86.488342%, 100%)" offset="0.667969"/><stop stop-opacity="1" stop-color="rgb(19.163513%, 86.37085%, 100%)" offset="0.671875"/><stop stop-opacity="1" stop-color="rgb(18.463135%, 86.251831%, 100%)" offset="0.675781"/><stop stop-opacity="1" stop-color="rgb(17.762756%, 86.134338%, 100%)" offset="0.679687"/><stop stop-opacity="1" stop-color="rgb(17.060852%, 86.01532%, 100%)" offset="0.683594"/><stop stop-opacity="1" stop-color="rgb(16.360474%, 85.897827%, 100%)" offset="0.6875"/><stop stop-opacity="1" stop-color="rgb(15.660095%, 85.778809%, 100%)" offset="0.691406"/><stop stop-opacity="1" stop-color="rgb(14.959717%, 85.661316%, 100%)" offset="0.695312"/><stop stop-opacity="1" stop-color="rgb(14.257812%, 85.542297%, 100%)" offset="0.699219"/><stop stop-opacity="1" stop-color="rgb(13.557434%, 85.424805%, 100%)" offset="0.703125"/><stop stop-opacity="1" stop-color="rgb(12.857056%, 85.305786%, 100%)" offset="0.707031"/><stop stop-opacity="1" stop-color="rgb(12.156677%, 85.188293%, 100%)" offset="0.710937"/><stop stop-opacity="1" stop-color="rgb(11.454773%, 85.069275%, 100%)" offset="0.714844"/><stop stop-opacity="1" stop-color="rgb(10.754395%, 84.951782%, 100%)" offset="0.71875"/><stop stop-opacity="1" stop-color="rgb(10.05249%, 84.83429%, 100%)" offset="0.722656"/><stop stop-opacity="1" stop-color="rgb(9.352112%, 84.716797%, 100%)" offset="0.726562"/><stop stop-opacity="1" stop-color="rgb(8.651733%, 84.597778%, 100%)" offset="0.730469"/><stop stop-opacity="1" stop-color="rgb(7.951355%, 84.480286%, 100%)" offset="0.734375"/><stop stop-opacity="1" stop-color="rgb(7.249451%, 84.361267%, 100%)" offset="0.738281"/><stop stop-opacity="1" stop-color="rgb(6.549072%, 84.243774%, 100%)" offset="0.742188"/><stop stop-opacity="1" stop-color="rgb(5.848694%, 84.124756%, 100%)" offset="0.746094"/><stop stop-opacity="1" stop-color="rgb(5.148315%, 84.007263%, 100%)" offset="0.75"/><stop stop-opacity="1" stop-color="rgb(4.446411%, 83.888245%, 100%)" offset="0.753906"/><stop stop-opacity="1" stop-color="rgb(3.746033%, 83.770752%, 100%)" offset="0.757812"/><stop stop-opacity="1" stop-color="rgb(3.045654%, 83.651733%, 100%)" offset="0.761719"/><stop stop-opacity="1" stop-color="rgb(2.345276%, 83.534241%, 100%)" offset="0.765625"/><stop stop-opacity="1" stop-color="rgb(1.643372%, 83.415222%, 100%)" offset="0.769531"/><stop stop-opacity="1" stop-color="rgb(0.942993%, 83.297729%, 100%)" offset="0.773438"/><stop stop-opacity="1" stop-color="rgb(0.471497%, 83.218384%, 100%)" offset="0.777344"/><stop stop-opacity="1" stop-color="rgb(0%, 83.139038%, 100%)" offset="0.78125"/><stop stop-opacity="1" stop-color="rgb(0%, 83.139038%, 100%)" offset="0.8125"/><stop stop-opacity="1" stop-color="rgb(0%, 83.139038%, 100%)" offset="0.875"/><stop stop-opacity="1" stop-color="rgb(0%, 83.139038%, 100%)" offset="1"/></linearGradient></defs><g clip-path="url(#a75ebf0388)"><g clip-path="url(#868458b92e)"><g clip-path="url(#1e3f50fffe)"><path stroke-linecap="round" transform="matrix(-1.760433, 1.541582, -1.541582, -1.760433, 517.598635, 226.369248)" fill="none" stroke-linejoin="miter" d="M 165.000257 99.999882 C 164.999845 101.064601 164.974465 102.127425 164.921761 103.188511 C 164.869213 104.251953 164.790441 105.3124 164.686701 106.370954 C 164.58296 107.429508 164.452995 108.485068 164.296806 109.537634 C 164.140617 110.5902 163.958048 111.637416 163.750355 112.680383 C 163.543917 113.72445 163.309843 114.762067 163.051744 115.794179 C 162.793645 116.82629 162.50901 117.850697 162.20145 118.868342 C 161.891534 119.886143 161.558693 120.897183 161.20026 121.896906 C 160.841982 122.898984 160.459368 123.890846 160.052573 124.874847 C 159.644522 125.857747 159.213233 126.829175 158.758864 127.791486 C 158.304495 128.753797 157.826732 129.702279 157.324632 130.640545 C 156.822533 131.57881 156.298296 132.504347 155.751921 133.417156 C 155.205546 134.329964 154.636878 135.227688 154.044817 136.111583 C 153.454011 136.996579 152.842012 137.865234 152.208975 138.719904 C 151.574838 139.575831 150.920607 140.414161 150.245182 141.236152 C 149.570857 142.056886 148.876594 142.86238 148.161137 143.651534 C 147.44678 144.439432 146.714685 145.209578 145.962495 145.962127 C 145.210306 146.714677 144.440222 147.447119 143.652399 148.161809 C 142.863321 148.875399 142.057604 149.569981 141.235248 150.245555 C 140.412892 150.921129 139.574841 151.574083 138.720152 152.20803 C 137.865462 152.841976 136.996334 153.454402 136.112766 154.045309 C 135.226842 154.636372 134.328835 155.205759 133.417488 155.75237 C 132.503786 156.299138 131.5791 156.822973 130.641075 157.324033 C 129.70195 157.826349 128.752941 158.304477 127.790592 158.759829 C 126.829343 159.213926 125.857111 159.64509 124.874994 160.052067 C 123.891777 160.4603 122.898521 160.84199 121.897736 161.199336 C 120.895851 161.557937 119.886438 161.892195 118.86824 162.201009 C 117.850043 162.509823 116.825417 162.793038 115.793262 163.051909 C 114.761107 163.310779 113.72488 163.543894 112.680968 163.75031 C 111.637212 163.959081 110.589226 164.13974 109.537324 164.297 C 108.485266 164.451903 107.429291 164.583407 106.371442 164.686643 C 105.312494 164.791135 104.251828 164.869715 103.189445 164.922383 C 102.125806 164.973951 101.064061 165.000551 99.999343 165.000139 C 98.93698 164.999571 97.8729 164.973091 96.810715 164.921643 C 95.748529 164.870195 94.688081 164.791423 93.628271 164.686582 C 92.569717 164.582842 91.514157 164.452877 90.461591 164.296688 C 89.411381 164.140343 88.363065 163.95903 87.318842 163.750237 C 86.275875 163.542543 85.238414 163.310824 84.206302 163.052726 C 83.175291 162.793371 82.149784 162.509992 81.130883 162.201332 C 80.114338 161.892516 79.104398 161.558419 78.10232 161.200142 C 77.100241 160.841864 76.108379 160.45925 75.125478 160.051199 C 74.142734 159.645503 73.171306 159.214215 72.208995 158.759846 C 71.247784 158.304221 70.296946 157.826614 69.35868 157.324514 C 68.421671 156.823514 67.496134 156.299277 66.583326 155.752903 C 65.671617 155.205272 64.771538 154.63676 63.887642 154.044699 C 63.003903 153.454993 62.133992 152.841894 61.279321 152.208857 C 60.42575 151.574564 59.58742 150.920333 58.76433 150.246164 C 57.942339 149.570739 57.136845 148.876476 56.348947 148.162119 C 55.561049 147.447762 54.789648 146.714567 54.038198 145.961122 C 53.285648 145.208932 52.552106 144.440104 51.838516 143.651025 C 51.123826 142.863203 50.429244 142.057486 49.75367 141.23513 C 49.079352 140.413874 48.425142 139.574723 47.791196 138.720034 C 47.158505 137.866444 46.544823 136.996216 45.953916 136.112648 C 45.364109 135.227824 44.794722 134.329817 44.247955 133.416115 C 43.701344 132.504768 43.176252 131.578982 42.675192 130.640957 C 42.174132 129.702932 41.694748 128.752823 41.240652 127.791574 C 40.7853 126.829225 40.354135 125.856993 39.947158 124.874876 C 39.541281 123.891503 39.158491 122.899502 38.79989 121.897618 C 38.441288 120.895733 38.10703 119.88632 37.798216 118.868122 C 37.490658 117.851024 37.206187 116.825299 36.948573 115.794244 C 36.689702 114.762089 36.456431 113.723506 36.248916 112.68085 C 36.0414 111.638193 35.859485 110.589108 35.703481 109.538306 C 35.547322 108.485148 35.417074 107.430273 35.312582 106.371324 C 35.20809 105.312376 35.130766 104.25281 35.079198 103.189171 C 35.02653 102.126788 35.00103 101.063787 35.000342 100.000325 C 34.999654 98.936862 35.026134 97.872782 35.077582 96.810596 C 35.131386 95.748254 35.208902 94.686707 35.312643 93.628153 C 35.417639 92.570699 35.547604 91.515139 35.703793 90.462573 C 35.859982 89.410007 36.041295 88.361691 36.248989 87.318724 C 36.456682 86.275757 36.688401 85.238296 36.948855 84.206028 C 37.206954 83.173917 37.489234 82.149666 37.799149 81.131865 C 38.107809 80.112964 38.440806 79.10428 38.799083 78.102202 C 39.157361 77.100123 39.539975 76.108261 39.948026 75.12536 C 40.354978 74.143716 40.78611 73.169932 41.241735 72.208721 C 41.695005 71.247666 42.173867 70.297928 42.674711 69.358562 C 43.176811 68.420297 43.699948 67.496016 44.247578 66.584307 C 44.793953 65.671499 45.363721 64.772519 45.954526 63.887524 C 46.545332 63.002529 47.157331 62.133874 47.791624 61.280303 C 48.424662 60.425632 49.078892 59.587302 49.754317 58.765311 C 50.428486 57.942221 51.124005 57.137827 51.837106 56.348829 C 52.552563 55.559675 53.285914 54.790629 54.038104 54.03808 C 54.790293 53.28553 55.560377 52.553088 56.3482 51.838398 C 57.136022 51.123708 57.94174 50.429126 58.764095 49.753552 C 59.586607 49.080334 60.424502 48.425024 61.279192 47.791078 C 62.133881 47.157131 63.00301 46.544705 63.887834 45.954898 C 64.772501 45.362735 65.671764 44.794448 66.583111 44.247837 C 67.495557 43.69997 68.421499 43.177234 69.358268 42.675074 C 70.297393 42.172758 71.247659 41.69573 72.208907 41.241634 C 73.171256 40.786281 74.143489 40.355117 75.125605 39.94814 C 76.107722 39.541163 77.099723 39.158373 78.101608 38.799772 C 79.103492 38.44117 80.114161 38.108012 81.131103 37.798098 C 82.149301 37.489284 83.173927 37.206069 84.206081 36.947199 C 85.237136 36.689584 86.275719 36.456313 87.318376 36.248798 C 88.362288 36.042382 89.410117 35.859367 90.463275 35.703207 C 91.514077 35.547204 92.570208 35.418056 93.629157 35.313564 C 94.688105 35.209072 95.748771 35.130492 96.811154 35.077824 C 97.872437 35.026412 98.936538 34.999656 100 34.998968 " stroke="#ffffff" stroke-width="18" stroke-opacity="1" stroke-miterlimit="4"/><path stroke-linecap="round" transform="matrix(-1.760433, 1.541582, -1.541582, -1.760433, 517.598635, 226.369248)" fill="none" stroke-linejoin="miter" d="M 99.999672 99.999554 C 100.818311 99.999713 101.635553 99.960927 102.449984 99.879739 C 103.265671 99.799651 104.073992 99.67983 104.877304 99.520118 C 105.680615 99.360407 106.474206 99.161119 107.256976 98.923509 C 108.039746 98.685899 108.810595 98.411223 109.567012 98.097283 C 110.323429 97.783342 111.062114 97.433904 111.784168 97.047712 C 112.507477 96.66262 113.208344 96.242343 113.889123 95.786725 C 114.569903 95.331107 115.226196 94.845171 115.858946 94.325305 C 116.492953 93.806539 117.098862 93.256512 117.676829 92.677579 C 118.257151 92.09849 118.806077 91.491907 119.326118 90.86003 C 119.844902 90.227053 120.331346 89.570194 120.78655 88.888196 C 121.241909 88.208554 121.661472 87.506442 122.047751 86.784059 C 122.432931 86.062932 122.783726 85.32279 123.096838 84.567401 C 123.41105 83.810756 123.686479 83.040119 123.923281 82.257847 C 124.161182 81.474319 124.359357 80.680411 124.519062 79.877223 C 124.678766 79.074035 124.799056 78.265178 124.879932 77.450652 C 124.959551 76.635027 125.000069 75.818445 125.000229 74.999805 C 125.000388 74.181166 124.959246 73.36408 124.880414 72.549493 C 124.799226 71.735062 124.679405 70.926741 124.519694 70.123429 C 124.359982 69.320117 124.160694 68.526527 123.924184 67.742501 C 123.686574 66.959731 123.409542 66.189038 123.096858 65.433721 C 122.784017 64.676048 122.434579 63.937363 122.048387 63.215309 C 121.662196 62.493256 121.241919 61.792389 120.7874 61.110354 C 120.331782 60.429574 119.84459 59.772181 119.32598 59.140531 C 118.806115 58.50778 118.256087 57.901871 117.678254 57.322648 C 117.098065 56.743581 116.492582 56.1934 115.859605 55.674615 C 115.226628 55.15583 114.570869 54.668131 113.888871 54.212927 C 113.208129 53.758824 112.507117 53.338005 111.784734 52.951726 C 111.062351 52.565447 110.323465 52.215751 109.566976 51.903895 C 108.810331 51.589683 108.039695 51.314254 107.256166 51.076352 C 106.473894 50.83955 105.681086 50.64012 104.877898 50.480415 C 104.07471 50.320711 103.265853 50.200421 102.450228 50.120801 C 101.635702 50.039926 100.81912 49.999408 99.99938 50.000504 C 99.180741 50.000345 98.364755 50.040231 97.549068 50.120319 C 96.734637 50.201507 95.92506 50.320228 95.123004 50.481039 C 94.319693 50.64075 93.527202 50.838783 92.742076 51.076549 C 91.959306 51.314159 91.189713 51.589934 90.43204 51.902775 C 89.675623 52.216716 88.936938 52.566154 88.214884 52.952346 C 87.492831 53.338537 86.791964 53.758814 86.109929 54.213333 C 85.430249 54.667695 84.772856 55.154887 84.140106 55.674753 C 83.507355 56.194618 82.90129 56.74229 82.322223 57.322479 C 81.744256 57.901412 81.194075 58.506895 80.67529 59.139872 C 80.155406 59.774105 79.667706 60.429864 79.213602 61.110606 C 78.758399 61.792603 78.33758 62.493616 77.952401 63.214743 C 77.566121 63.937126 77.216426 64.676012 76.902214 65.432657 C 76.590358 66.189146 76.313673 66.958683 76.077027 67.743311 C 75.839126 68.526839 75.639695 69.319647 75.47999 70.122835 C 75.320286 70.926023 75.199996 71.73488 75.120376 72.550505 C 75.0406 73.363775 75.000083 74.180357 74.999923 74.998997 C 75.00102 75.818736 75.039806 76.635977 75.120994 77.450408 C 75.199826 78.264996 75.320903 79.074417 75.480614 79.877729 C 75.640326 80.68104 75.838358 81.473531 76.077224 82.257401 C 76.314834 83.040171 76.58951 83.81102 76.90345 84.567437 C 77.216135 85.322754 77.566829 86.062539 77.951921 86.785849 C 78.338112 87.507902 78.758389 88.208769 79.214008 88.889548 C 79.66837 89.569228 80.155562 90.226621 80.675428 90.859371 C 81.194193 91.493378 81.742965 92.098187 82.322054 92.678509 C 82.900987 93.256477 83.50757 93.805402 84.139447 94.325443 C 84.772424 94.844227 85.430539 95.331771 86.110181 95.787131 C 86.790923 96.241234 87.491935 96.662053 88.214318 97.048332 C 88.936701 97.434611 89.676687 97.783051 90.433332 98.097263 C 91.188721 98.410375 91.959358 98.685804 92.742886 98.923705 C 93.526414 99.161607 94.320322 99.359782 95.12351 99.519487 C 95.926698 99.679191 96.735555 99.799481 97.548824 99.879257 C 98.36445 99.958876 99.181032 99.999394 99.999672 99.999554 Z M 99.999672 99.999554 " stroke="url(#095202a370)" stroke-width="18" stroke-miterlimit="4"/></g></g></g></svg>