<svg xmlns="http://www.w3.org/2000/svg" xmlns:xlink="http://www.w3.org/1999/xlink" width="500" zoomAndPan="magnify" viewBox="0 0 375 374.999991" height="500" preserveAspectRatio="xMidYMid meet" version="1.0"><defs><clipPath id="bb34f7ea7e"><path d="M 159.792969 -120.773438 L 495.984375 159.972656 L 215.242188 496.164062 L -120.953125 215.421875 Z M 159.792969 -120.773438 " clip-rule="nonzero"/></clipPath><clipPath id="9f1c2ef8ec"><path d="M 159.792969 -120.773438 L 495.984375 159.972656 L 215.242188 496.164062 L -120.953125 215.421875 Z M 159.792969 -120.773438 " clip-rule="nonzero"/></clipPath></defs><rect x="-37.5" width="450" fill="#ffffff" y="-37.499999" height="449.999989" fill-opacity="1"/><rect x="-37.5" width="450" fill="#ffffff" y="-37.499999" height="449.999989" fill-opacity="1"/><g clip-path="url(#bb34f7ea7e)"><g clip-path="url(#9f1c2ef8ec)"><path stroke-linecap="round" transform="matrix(1.679891, 1.402822, -1.402822, 1.679891, 159.791245, -120.773145)" fill="none" stroke-linejoin="miter" d="M 164.999603 99.999243 C 165.000235 101.063704 164.974356 102.127049 164.921968 103.189278 C 164.86958 104.251507 164.790682 105.312621 164.686644 106.371475 C 164.582606 107.430329 164.452284 108.485554 164.295678 109.537149 C 164.140216 110.590114 163.958697 111.636936 163.750893 112.680128 C 163.544234 113.724691 163.310372 114.761739 163.051597 115.794015 C 162.794191 116.825146 162.510728 117.850134 162.201207 118.868978 C 161.893056 119.886678 161.559072 120.895721 161.200401 121.897476 C 160.84173 122.899231 160.458597 123.891185 160.052146 124.874707 C 159.644551 125.85686 159.215007 126.829436 158.759858 127.790842 C 158.304709 128.752247 157.826468 129.702707 157.32399 130.640851 C 156.824027 131.579222 156.298684 132.503906 155.751618 133.416502 C 155.204553 134.329097 154.635991 135.227089 154.045708 136.112991 C 153.45428 136.997524 152.842726 137.866308 152.208306 138.721634 C 151.574112 139.574445 150.920936 140.412879 150.24512 141.235339 C 149.571818 142.058026 148.876102 142.862224 148.161403 143.652046 C 147.446931 144.439353 146.713702 145.209769 145.961943 145.960779 C 145.209958 146.714303 144.439443 147.448422 143.651768 148.161991 C 142.862723 148.876704 142.057887 149.569724 141.235665 150.244708 C 140.413444 150.919692 139.575206 151.575497 138.720033 152.208238 C 137.866005 152.842348 136.996186 153.454766 136.113092 154.045716 C 135.227483 154.63644 134.328598 155.205696 133.417806 155.75234 C 132.504501 156.298759 131.579289 156.822566 130.640801 157.324905 C 129.702313 157.827245 128.752144 158.304459 127.79007 158.759061 C 126.829139 159.215033 125.857898 159.644736 124.87475 160.051827 C 123.891603 160.458918 122.899289 160.841109 121.897583 161.200914 C 120.896102 161.558206 119.8866 161.891968 118.867931 162.20083 C 117.850406 162.511063 116.82531 162.792737 115.793337 163.052252 C 114.762733 163.310623 113.724332 163.54295 112.681794 163.75083 C 111.636741 163.958483 110.58892 164.140545 109.537186 164.295645 C 108.485227 164.453259 107.430725 164.582767 106.37094 164.686458 C 105.3123 164.791518 104.252261 164.869843 103.189454 164.922576 C 102.126872 164.972795 101.063811 165.000162 100.00072 164.999649 C 98.93626 165.000281 97.872915 164.974402 96.810686 164.922014 C 95.748457 164.869626 94.687343 164.790727 93.628489 164.686689 C 92.569634 164.582651 91.51441 164.45233 90.462814 164.295724 C 89.409849 164.140262 88.363028 163.958742 87.319835 163.750939 C 86.275273 163.544279 85.238224 163.310418 84.205949 163.051643 C 83.174818 162.794237 82.14983 162.510774 81.130986 162.201253 C 80.113286 161.893101 79.104243 161.559118 78.102488 161.200447 C 77.100732 160.841776 76.108779 160.458643 75.125256 160.052192 C 74.143104 159.644596 73.170527 159.215053 72.209122 158.759904 C 71.247717 158.304755 70.297257 157.826513 69.359112 157.324036 C 68.420742 156.824073 67.496057 156.298729 66.583462 155.751664 C 65.670867 155.204599 64.772875 154.636037 63.888342 154.044609 C 63.00244 153.454326 62.133655 152.842772 61.27833 152.208352 C 60.425519 151.574158 59.587085 150.920982 58.764624 150.245166 C 57.941938 149.571864 57.137739 148.876148 56.347918 148.161449 C 55.560611 147.446977 54.790195 146.713748 54.039185 145.961989 C 53.28566 145.210004 52.551542 144.439489 51.837973 143.651814 C 51.123259 142.862769 50.43024 142.057933 49.755256 141.235711 C 49.080272 140.413489 48.424467 139.575251 47.791726 138.720079 C 47.157615 137.866051 46.545198 136.996232 45.954248 136.113137 C 45.363524 135.227529 44.794268 134.328643 44.246479 133.416482 C 43.701205 132.504547 43.177398 131.579335 42.675058 130.640847 C 42.172719 129.702359 41.695505 128.75219 41.240903 127.790115 C 40.784931 126.829185 40.355228 125.857944 39.948137 124.874796 C 39.541046 123.891649 39.158855 122.899335 38.799049 121.897629 C 38.441758 120.896148 38.107996 119.886646 37.799133 118.867977 C 37.488901 117.850452 37.207226 116.825356 36.947712 115.793382 C 36.689341 114.762779 36.457014 113.724378 36.249134 112.68184 C 36.041481 111.636787 35.859419 110.588966 35.704319 109.537232 C 35.546705 108.485273 35.417197 107.430771 35.313506 106.370986 C 35.208446 105.312346 35.130121 104.252307 35.077388 103.1895 C 35.027169 102.126918 34.999802 101.063856 35.000314 100.000766 C 34.999683 98.936306 35.025562 97.872961 35.07795 96.810732 C 35.130338 95.748503 35.209236 94.687389 35.313274 93.628535 C 35.417312 92.56968 35.547634 91.514456 35.70424 90.46286 C 35.859702 89.409895 36.041221 88.363073 36.249025 87.319881 C 36.455684 86.275319 36.689546 85.23827 36.948321 84.205995 C 37.205726 83.174864 37.49056 82.148732 37.798711 81.131032 C 38.106862 80.113332 38.440845 79.104289 38.799517 78.102534 C 39.158188 77.100778 39.541321 76.108824 39.947772 75.125302 C 40.355367 74.14315 40.784911 73.170573 41.24006 72.209168 C 41.695209 71.247762 42.17345 70.297303 42.675928 69.359158 C 43.175891 68.420788 43.701234 67.496103 44.2483 66.583508 C 44.795365 65.670912 45.363927 64.772921 45.95421 63.887018 C 46.545638 63.002486 47.157192 62.133701 47.791611 61.278376 C 48.425805 60.425564 49.078981 59.587131 49.754798 58.76467 C 50.4281 57.941984 51.123816 57.137785 51.838515 56.347964 C 52.552987 55.560657 53.286216 54.790241 54.037975 54.039231 C 54.789959 53.285706 55.560475 52.551588 56.34815 51.838018 C 57.137195 51.123305 57.942031 50.430286 58.764252 49.755302 C 59.586474 49.080317 60.424712 48.424513 61.279885 47.791772 C 62.133913 47.157661 63.003731 46.545244 63.886826 45.954294 C 64.772435 45.36357 65.67132 44.794314 66.583482 44.246525 C 67.495417 43.701251 68.420629 43.177444 69.359117 42.675104 C 70.297605 42.172765 71.247773 41.695551 72.209848 41.240949 C 73.170779 40.784976 74.14202 40.355274 75.125168 39.948183 C 76.108315 39.541092 77.100629 39.158901 78.102335 38.799095 C 79.103815 38.441803 80.113318 38.108042 81.131987 37.799179 C 82.149512 37.488947 83.174608 37.207272 84.206581 36.947757 C 85.237185 36.689387 86.275585 36.457059 87.319494 36.248036 C 88.363177 36.041526 89.410998 35.859465 90.462731 35.704365 C 91.514691 35.546751 92.569193 35.417242 93.628977 35.313552 C 94.687618 35.208491 95.747657 35.130167 96.810464 35.077434 C 97.873045 35.027215 98.936107 34.999848 99.999198 35.00036 " stroke="#0a2540" stroke-width="18" stroke-opacity="1" stroke-miterlimit="4"/><path stroke-linecap="round" transform="matrix(1.679891, 1.402822, -1.402822, 1.679891, 159.791245, -120.773145)" fill="none" stroke-linejoin="miter" d="M 100.001216 100.000118 C 100.819786 100.000195 101.635573 99.96074 102.451318 99.879466 C 103.265693 99.799336 104.074771 99.679448 104.876038 99.519577 C 105.679819 99.359931 106.47442 99.161446 107.257326 98.923896 C 108.040232 98.686345 108.810073 98.410873 109.56685 98.09748 C 110.323627 97.784086 111.063455 97.433689 111.784965 97.047433 C 112.507619 96.662546 113.20944 96.241575 113.890203 95.787032 C 114.569822 95.331119 115.226786 94.845292 115.860178 94.325668 C 116.49357 93.806045 117.099279 93.256056 117.677081 92.678215 C 118.256252 92.099231 118.806145 91.493539 119.325616 90.85977 C 119.845086 90.226002 120.332313 89.570327 120.786377 88.888864 C 121.241586 88.208771 121.662036 87.506546 122.047502 86.784704 C 122.432968 86.062863 122.783224 85.323918 123.097126 84.566499 C 123.409658 83.810225 123.685384 83.040506 123.924304 82.257341 C 124.16071 81.47395 124.360084 80.679629 124.519686 79.876663 C 124.679289 79.073698 124.798893 78.264604 124.879644 77.45075 C 124.95925 76.635527 124.999777 75.818058 124.999854 74.999488 C 124.999931 74.180918 124.959333 73.363761 124.879203 72.549386 C 124.799072 71.735011 124.679184 70.925933 124.519539 70.122152 C 124.361038 69.319741 124.161183 68.526284 123.923632 67.743378 C 123.684937 66.959102 123.409465 66.189261 123.097216 65.433854 C 122.783822 64.677077 122.433426 63.937249 122.048539 63.214595 C 121.662283 62.493085 121.241311 61.791264 120.786768 61.110501 C 120.332225 60.429738 119.845029 59.773918 119.325405 59.140526 C 118.805781 58.507134 118.255792 57.901424 117.676808 57.322253 C 117.097823 56.743082 116.493276 56.194559 115.859507 55.675088 C 115.227108 55.154473 114.570064 54.668391 113.889971 54.213183 C 113.208507 53.759118 112.507653 53.337524 111.785811 52.952058 C 111.062825 52.565222 110.32251 52.21611 109.567606 51.902434 C 108.811332 51.589902 108.041612 51.314176 107.257077 51.0764 C 106.472543 50.838624 105.680735 50.639476 104.87777 50.479873 C 104.074805 50.320271 103.26571 50.200667 102.450487 50.12106 C 101.636633 50.04031 100.819164 49.999783 100.000594 49.999706 C 99.182024 49.999629 98.364867 50.040227 97.550492 50.120357 C 96.734748 50.201632 95.92567 50.321519 95.123258 50.480021 C 94.319477 50.639666 93.526021 50.839521 92.743115 51.077072 C 91.959065 51.313252 91.189223 51.588724 90.43359 51.903488 C 89.676813 52.216881 88.938355 52.566134 88.214331 52.952165 C 87.492822 53.338421 86.79237 53.758249 86.110238 54.213936 C 85.429475 54.668479 84.773654 55.155675 84.140262 55.675299 C 83.50687 56.194923 82.901387 56.742398 82.322216 57.321382 C 81.744188 57.901737 81.194295 58.507428 80.674825 59.141197 C 80.15558 59.772452 79.668127 60.43064 79.212919 61.110733 C 78.758855 61.792197 78.33726 62.493051 77.951794 63.214893 C 77.566328 63.936735 77.216072 64.67568 76.90217 65.433098 C 76.589638 66.189372 76.313912 66.959092 76.076136 67.743626 C 75.838586 68.525647 75.639212 69.319969 75.47961 70.122934 C 75.320008 70.925899 75.200403 71.734993 75.120797 72.550217 C 75.040046 73.364071 74.999519 74.181539 74.999442 75.000109 C 74.999365 75.81868 75.039964 76.635837 75.120094 77.450212 C 75.200224 78.264586 75.320112 79.073664 75.479757 79.877445 C 75.640773 80.680083 75.838114 81.473313 76.076808 82.257589 C 76.314359 83.040495 76.589831 83.810337 76.903224 84.567114 C 77.216618 85.32389 77.565871 86.062349 77.952127 86.783858 C 78.338157 87.507882 78.757985 88.208334 79.212528 88.889096 C 79.667071 89.569859 80.155412 90.227049 80.675036 90.860441 C 81.193515 91.492463 81.743504 92.098173 82.322489 92.677344 C 82.901473 93.256516 83.507165 93.806409 84.139789 94.324509 C 84.773558 94.84398 85.430376 95.332577 86.11047 95.787785 C 86.791933 96.241849 87.493014 96.660929 88.216 97.047765 C 88.936471 97.434376 89.676786 97.783488 90.433061 98.09602 C 91.189109 98.411066 91.960198 98.685648 92.742219 98.923198 C 93.526754 99.160974 94.319931 99.358978 95.122896 99.51858 C 95.925862 99.678182 96.73473 99.800301 97.549953 99.879907 C 98.365177 99.959514 99.180132 99.999815 100.001216 100.000118 Z M 100.001216 100.000118 " stroke="#76a2f7" stroke-width="18" stroke-opacity="1" stroke-miterlimit="4"/></g></g></svg>