<svg xmlns="http://www.w3.org/2000/svg" xmlns:xlink="http://www.w3.org/1999/xlink" width="500" zoomAndPan="magnify" viewBox="0 0 375 374.999991" height="500" preserveAspectRatio="xMidYMid meet" version="1.0"><defs><clipPath id="cb2c7a752f"><path d="M 512.035156 222.425781 L 170.054688 529.699219 L -137.222656 187.71875 L 204.757812 -119.558594 Z M 512.035156 222.425781 " clip-rule="nonzero"/></clipPath><clipPath id="75f1d18106"><path d="M 512.035156 222.425781 L 170.054688 529.699219 L -137.222656 187.71875 L 204.757812 -119.558594 Z M 512.035156 222.425781 " clip-rule="nonzero"/></clipPath><clipPath id="5f98c93947"><path d="M 512.035156 222.425781 L 170.054688 529.699219 L -137.222656 187.71875 L 204.757812 -119.558594 Z M 512.035156 222.425781 " clip-rule="nonzero"/></clipPath><linearGradient x1="-0.395507" gradientTransform="matrix(50, -0.000000839407, 0.000000839407, 50, 75.000012, 50.000003)" y1="-0.395507" x2="1.395507" gradientUnits="userSpaceOnUse" y2="1.395507" id="d6bb406332"><stop stop-opacity="1" stop-color="rgb(0%, 83.139038%, 100%)" offset="0"/><stop stop-opacity="1" stop-color="rgb(0%, 83.139038%, 100%)" offset="0.125"/><stop stop-opacity="1" stop-color="rgb(0%, 83.139038%, 100%)" offset="0.1875"/><stop stop-opacity="1" stop-color="rgb(0%, 83.139038%, 100%)" offset="0.21875"/><stop stop-opacity="1" stop-color="rgb(0.0198364%, 82.78656%, 99.613953%)" offset="0.222656"/><stop stop-opacity="1" stop-color="rgb(0.0396729%, 82.434082%, 99.229431%)" offset="0.226562"/><stop stop-opacity="1" stop-color="rgb(0.0671387%, 81.95343%, 98.706055%)" offset="0.230469"/><stop stop-opacity="1" stop-color="rgb(0.0946045%, 81.474304%, 98.182678%)" offset="0.234375"/><stop stop-opacity="1" stop-color="rgb(0.12207%, 80.993652%, 97.657776%)" offset="0.238281"/><stop stop-opacity="1" stop-color="rgb(0.149536%, 80.514526%, 97.134399%)" offset="0.242188"/><stop stop-opacity="1" stop-color="rgb(0.177002%, 80.033875%, 96.609497%)" offset="0.246094"/><stop stop-opacity="1" stop-color="rgb(0.204468%, 79.553223%, 96.086121%)" offset="0.25"/><stop stop-opacity="1" stop-color="rgb(0.231934%, 79.072571%, 95.561218%)" offset="0.253906"/><stop stop-opacity="1" stop-color="rgb(0.259399%, 78.593445%, 95.037842%)" offset="0.257812"/><stop stop-opacity="1" stop-color="rgb(0.286865%, 78.112793%, 94.512939%)" offset="0.261719"/><stop stop-opacity="1" stop-color="rgb(0.314331%, 77.633667%, 93.989563%)" offset="0.265625"/><stop stop-opacity="1" stop-color="rgb(0.341797%, 77.153015%, 93.464661%)" offset="0.269531"/><stop stop-opacity="1" stop-color="rgb(0.369263%, 76.672363%, 92.941284%)" offset="0.273438"/><stop stop-opacity="1" stop-color="rgb(0.396729%, 76.191711%, 92.417908%)" offset="0.277344"/><stop stop-opacity="1" stop-color="rgb(0.424194%, 75.712585%, 91.894531%)" offset="0.28125"/><stop stop-opacity="1" stop-color="rgb(0.450134%, 75.231934%, 91.369629%)" offset="0.285156"/><stop stop-opacity="1" stop-color="rgb(0.4776%, 74.752808%, 90.846252%)" offset="0.289062"/><stop stop-opacity="1" stop-color="rgb(0.505066%, 74.272156%, 90.32135%)" offset="0.292969"/><stop stop-opacity="1" stop-color="rgb(0.532532%, 73.791504%, 89.797974%)" offset="0.296875"/><stop stop-opacity="1" stop-color="rgb(0.559998%, 73.310852%, 89.273071%)" offset="0.300781"/><stop stop-opacity="1" stop-color="rgb(0.587463%, 72.831726%, 88.749695%)" offset="0.304688"/><stop stop-opacity="1" stop-color="rgb(0.614929%, 72.351074%, 88.224792%)" offset="0.308594"/><stop stop-opacity="1" stop-color="rgb(0.642395%, 71.871948%, 87.701416%)" offset="0.3125"/><stop stop-opacity="1" stop-color="rgb(0.669861%, 71.391296%, 87.176514%)" offset="0.316406"/><stop stop-opacity="1" stop-color="rgb(0.697327%, 70.910645%, 86.653137%)" offset="0.320312"/><stop stop-opacity="1" stop-color="rgb(0.724792%, 70.429993%, 86.129761%)" offset="0.324219"/><stop stop-opacity="1" stop-color="rgb(0.752258%, 69.950867%, 85.606384%)" offset="0.328125"/><stop stop-opacity="1" stop-color="rgb(0.779724%, 69.470215%, 85.081482%)" offset="0.332031"/><stop stop-opacity="1" stop-color="rgb(0.80719%, 68.991089%, 84.558105%)" offset="0.335938"/><stop stop-opacity="1" stop-color="rgb(0.834656%, 68.510437%, 84.033203%)" offset="0.339844"/><stop stop-opacity="1" stop-color="rgb(0.862122%, 68.029785%, 83.509827%)" offset="0.34375"/><stop stop-opacity="1" stop-color="rgb(0.889587%, 67.549133%, 82.984924%)" offset="0.347656"/><stop stop-opacity="1" stop-color="rgb(0.917053%, 67.070007%, 82.461548%)" offset="0.351562"/><stop stop-opacity="1" stop-color="rgb(0.944519%, 66.589355%, 81.936646%)" offset="0.355469"/><stop stop-opacity="1" stop-color="rgb(0.971985%, 66.110229%, 81.413269%)" offset="0.359375"/><stop stop-opacity="1" stop-color="rgb(0.999451%, 65.629578%, 80.888367%)" offset="0.363281"/><stop stop-opacity="1" stop-color="rgb(1.026917%, 65.148926%, 80.36499%)" offset="0.367187"/><stop stop-opacity="1" stop-color="rgb(1.054382%, 64.668274%, 79.841614%)" offset="0.371094"/><stop stop-opacity="1" stop-color="rgb(1.081848%, 64.189148%, 79.318237%)" offset="0.375"/><stop stop-opacity="1" stop-color="rgb(1.109314%, 63.708496%, 78.793335%)" offset="0.378906"/><stop stop-opacity="1" stop-color="rgb(1.13678%, 63.22937%, 78.269958%)" offset="0.382812"/><stop stop-opacity="1" stop-color="rgb(1.164246%, 62.748718%, 77.745056%)" offset="0.386719"/><stop stop-opacity="1" stop-color="rgb(1.191711%, 62.268066%, 77.22168%)" offset="0.390625"/><stop stop-opacity="1" stop-color="rgb(1.219177%, 61.787415%, 76.696777%)" offset="0.394531"/><stop stop-opacity="1" stop-color="rgb(1.246643%, 61.308289%, 76.173401%)" offset="0.398438"/><stop stop-opacity="1" stop-color="rgb(1.274109%, 60.827637%, 75.648499%)" offset="0.402344"/><stop stop-opacity="1" stop-color="rgb(1.301575%, 60.348511%, 75.125122%)" offset="0.40625"/><stop stop-opacity="1" stop-color="rgb(1.329041%, 59.867859%, 74.60022%)" offset="0.410156"/><stop stop-opacity="1" stop-color="rgb(1.356506%, 59.387207%, 74.076843%)" offset="0.414062"/><stop stop-opacity="1" stop-color="rgb(1.383972%, 58.906555%, 73.553467%)" offset="0.417969"/><stop stop-opacity="1" stop-color="rgb(1.411438%, 58.427429%, 73.03009%)" offset="0.421875"/><stop stop-opacity="1" stop-color="rgb(1.437378%, 57.946777%, 72.505188%)" offset="0.425781"/><stop stop-opacity="1" stop-color="rgb(1.464844%, 57.466125%, 71.981812%)" offset="0.429688"/><stop stop-opacity="1" stop-color="rgb(1.49231%, 56.985474%, 71.456909%)" offset="0.433594"/><stop stop-opacity="1" stop-color="rgb(1.519775%, 56.506348%, 70.933533%)" offset="0.4375"/><stop stop-opacity="1" stop-color="rgb(1.547241%, 56.025696%, 70.40863%)" offset="0.441406"/><stop stop-opacity="1" stop-color="rgb(1.574707%, 55.54657%, 69.885254%)" offset="0.445312"/><stop stop-opacity="1" stop-color="rgb(1.602173%, 55.065918%, 69.360352%)" offset="0.449219"/><stop stop-opacity="1" stop-color="rgb(1.629639%, 54.585266%, 68.836975%)" offset="0.453125"/><stop stop-opacity="1" stop-color="rgb(1.657104%, 54.104614%, 68.312073%)" offset="0.457031"/><stop stop-opacity="1" stop-color="rgb(1.68457%, 53.625488%, 67.788696%)" offset="0.460938"/><stop stop-opacity="1" stop-color="rgb(1.712036%, 53.144836%, 67.26532%)" offset="0.464844"/><stop stop-opacity="1" stop-color="rgb(1.739502%, 52.66571%, 66.741943%)" offset="0.46875"/><stop stop-opacity="1" stop-color="rgb(1.766968%, 52.185059%, 66.217041%)" offset="0.472656"/><stop stop-opacity="1" stop-color="rgb(1.794434%, 51.704407%, 65.693665%)" offset="0.476562"/><stop stop-opacity="1" stop-color="rgb(1.821899%, 51.223755%, 65.168762%)" offset="0.480469"/><stop stop-opacity="1" stop-color="rgb(1.849365%, 50.744629%, 64.645386%)" offset="0.484375"/><stop stop-opacity="1" stop-color="rgb(1.876831%, 50.263977%, 64.120483%)" offset="0.488281"/><stop stop-opacity="1" stop-color="rgb(1.904297%, 49.784851%, 63.597107%)" offset="0.492188"/><stop stop-opacity="1" stop-color="rgb(1.931763%, 49.304199%, 63.072205%)" offset="0.496094"/><stop stop-opacity="1" stop-color="rgb(1.959229%, 48.823547%, 62.548828%)" offset="0.5"/><stop stop-opacity="1" stop-color="rgb(1.986694%, 48.342896%, 62.023926%)" offset="0.503906"/><stop stop-opacity="1" stop-color="rgb(2.01416%, 47.86377%, 61.500549%)" offset="0.507812"/><stop stop-opacity="1" stop-color="rgb(2.041626%, 47.383118%, 60.977173%)" offset="0.511719"/><stop stop-opacity="1" stop-color="rgb(2.069092%, 46.903992%, 60.453796%)" offset="0.515625"/><stop stop-opacity="1" stop-color="rgb(2.096558%, 46.42334%, 59.928894%)" offset="0.519531"/><stop stop-opacity="1" stop-color="rgb(2.124023%, 45.942688%, 59.405518%)" offset="0.523437"/><stop stop-opacity="1" stop-color="rgb(2.151489%, 45.462036%, 58.880615%)" offset="0.527344"/><stop stop-opacity="1" stop-color="rgb(2.178955%, 44.98291%, 58.357239%)" offset="0.53125"/><stop stop-opacity="1" stop-color="rgb(2.206421%, 44.502258%, 57.832336%)" offset="0.535156"/><stop stop-opacity="1" stop-color="rgb(2.233887%, 44.023132%, 57.30896%)" offset="0.539062"/><stop stop-opacity="1" stop-color="rgb(2.261353%, 43.54248%, 56.784058%)" offset="0.542969"/><stop stop-opacity="1" stop-color="rgb(2.288818%, 43.061829%, 56.260681%)" offset="0.546875"/><stop stop-opacity="1" stop-color="rgb(2.316284%, 42.581177%, 55.735779%)" offset="0.550781"/><stop stop-opacity="1" stop-color="rgb(2.34375%, 42.102051%, 55.212402%)" offset="0.554688"/><stop stop-opacity="1" stop-color="rgb(2.371216%, 41.621399%, 54.689026%)" offset="0.558594"/><stop stop-opacity="1" stop-color="rgb(2.398682%, 41.142273%, 54.165649%)" offset="0.5625"/><stop stop-opacity="1" stop-color="rgb(2.426147%, 40.661621%, 53.640747%)" offset="0.566406"/><stop stop-opacity="1" stop-color="rgb(2.453613%, 40.180969%, 53.117371%)" offset="0.570312"/><stop stop-opacity="1" stop-color="rgb(2.479553%, 39.700317%, 52.592468%)" offset="0.574219"/><stop stop-opacity="1" stop-color="rgb(2.507019%, 39.221191%, 52.069092%)" offset="0.578125"/><stop stop-opacity="1" stop-color="rgb(2.534485%, 38.74054%, 51.544189%)" offset="0.582031"/><stop stop-opacity="1" stop-color="rgb(2.561951%, 38.261414%, 51.020813%)" offset="0.585938"/><stop stop-opacity="1" stop-color="rgb(2.589417%, 37.780762%, 50.495911%)" offset="0.589844"/><stop stop-opacity="1" stop-color="rgb(2.616882%, 37.30011%, 49.972534%)" offset="0.59375"/><stop stop-opacity="1" stop-color="rgb(2.644348%, 36.819458%, 49.447632%)" offset="0.597656"/><stop stop-opacity="1" stop-color="rgb(2.671814%, 36.340332%, 48.924255%)" offset="0.601562"/><stop stop-opacity="1" stop-color="rgb(2.69928%, 35.85968%, 48.400879%)" offset="0.605469"/><stop stop-opacity="1" stop-color="rgb(2.726746%, 35.380554%, 47.877502%)" offset="0.609375"/><stop stop-opacity="1" stop-color="rgb(2.754211%, 34.899902%, 47.3526%)" offset="0.613281"/><stop stop-opacity="1" stop-color="rgb(2.781677%, 34.41925%, 46.829224%)" offset="0.617188"/><stop stop-opacity="1" stop-color="rgb(2.809143%, 33.938599%, 46.304321%)" offset="0.621094"/><stop stop-opacity="1" stop-color="rgb(2.836609%, 33.459473%, 45.780945%)" offset="0.625"/><stop stop-opacity="1" stop-color="rgb(2.864075%, 32.978821%, 45.256042%)" offset="0.628906"/><stop stop-opacity="1" stop-color="rgb(2.891541%, 32.499695%, 44.732666%)" offset="0.632812"/><stop stop-opacity="1" stop-color="rgb(2.919006%, 32.019043%, 44.207764%)" offset="0.636719"/><stop stop-opacity="1" stop-color="rgb(2.946472%, 31.538391%, 43.684387%)" offset="0.640625"/><stop stop-opacity="1" stop-color="rgb(2.973938%, 31.057739%, 43.159485%)" offset="0.644531"/><stop stop-opacity="1" stop-color="rgb(3.001404%, 30.578613%, 42.636108%)" offset="0.648438"/><stop stop-opacity="1" stop-color="rgb(3.02887%, 30.097961%, 42.112732%)" offset="0.652344"/><stop stop-opacity="1" stop-color="rgb(3.056335%, 29.618835%, 41.589355%)" offset="0.65625"/><stop stop-opacity="1" stop-color="rgb(3.083801%, 29.138184%, 41.064453%)" offset="0.660156"/><stop stop-opacity="1" stop-color="rgb(3.111267%, 28.657532%, 40.541077%)" offset="0.664062"/><stop stop-opacity="1" stop-color="rgb(3.138733%, 28.17688%, 40.016174%)" offset="0.667969"/><stop stop-opacity="1" stop-color="rgb(3.166199%, 27.697754%, 39.492798%)" offset="0.671875"/><stop stop-opacity="1" stop-color="rgb(3.193665%, 27.217102%, 38.967896%)" offset="0.675781"/><stop stop-opacity="1" stop-color="rgb(3.22113%, 26.737976%, 38.444519%)" offset="0.679688"/><stop stop-opacity="1" stop-color="rgb(3.248596%, 26.257324%, 37.919617%)" offset="0.683594"/><stop stop-opacity="1" stop-color="rgb(3.276062%, 25.776672%, 37.39624%)" offset="0.6875"/><stop stop-opacity="1" stop-color="rgb(3.303528%, 25.296021%, 36.871338%)" offset="0.691406"/><stop stop-opacity="1" stop-color="rgb(3.330994%, 24.816895%, 36.347961%)" offset="0.695312"/><stop stop-opacity="1" stop-color="rgb(3.358459%, 24.336243%, 35.824585%)" offset="0.699219"/><stop stop-opacity="1" stop-color="rgb(3.385925%, 23.857117%, 35.301208%)" offset="0.703125"/><stop stop-opacity="1" stop-color="rgb(3.413391%, 23.376465%, 34.776306%)" offset="0.707031"/><stop stop-opacity="1" stop-color="rgb(3.440857%, 22.895813%, 34.25293%)" offset="0.710938"/><stop stop-opacity="1" stop-color="rgb(3.468323%, 22.415161%, 33.728027%)" offset="0.714844"/><stop stop-opacity="1" stop-color="rgb(3.495789%, 21.936035%, 33.204651%)" offset="0.71875"/><stop stop-opacity="1" stop-color="rgb(3.521729%, 21.455383%, 32.679749%)" offset="0.722656"/><stop stop-opacity="1" stop-color="rgb(3.549194%, 20.976257%, 32.156372%)" offset="0.726562"/><stop stop-opacity="1" stop-color="rgb(3.57666%, 20.495605%, 31.63147%)" offset="0.730469"/><stop stop-opacity="1" stop-color="rgb(3.604126%, 20.014954%, 31.108093%)" offset="0.734375"/><stop stop-opacity="1" stop-color="rgb(3.631592%, 19.534302%, 30.583191%)" offset="0.738281"/><stop stop-opacity="1" stop-color="rgb(3.659058%, 19.055176%, 30.059814%)" offset="0.742188"/><stop stop-opacity="1" stop-color="rgb(3.686523%, 18.574524%, 29.536438%)" offset="0.746094"/><stop stop-opacity="1" stop-color="rgb(3.713989%, 18.095398%, 29.013062%)" offset="0.75"/><stop stop-opacity="1" stop-color="rgb(3.741455%, 17.614746%, 28.488159%)" offset="0.753906"/><stop stop-opacity="1" stop-color="rgb(3.768921%, 17.134094%, 27.964783%)" offset="0.757812"/><stop stop-opacity="1" stop-color="rgb(3.796387%, 16.653442%, 27.43988%)" offset="0.761719"/><stop stop-opacity="1" stop-color="rgb(3.823853%, 16.174316%, 26.916504%)" offset="0.765625"/><stop stop-opacity="1" stop-color="rgb(3.851318%, 15.693665%, 26.391602%)" offset="0.769531"/><stop stop-opacity="1" stop-color="rgb(3.878784%, 15.214539%, 25.868225%)" offset="0.773437"/><stop stop-opacity="1" stop-color="rgb(3.898621%, 14.862061%, 25.483704%)" offset="0.777344"/><stop stop-opacity="1" stop-color="rgb(3.919983%, 14.509583%, 25.099182%)" offset="0.78125"/><stop stop-opacity="1" stop-color="rgb(3.919983%, 14.509583%, 25.099182%)" offset="0.8125"/><stop stop-opacity="1" stop-color="rgb(3.919983%, 14.509583%, 25.099182%)" offset="0.875"/><stop stop-opacity="1" stop-color="rgb(3.919983%, 14.509583%, 25.099182%)" offset="1"/></linearGradient></defs><g clip-path="url(#cb2c7a752f)"><g clip-path="url(#75f1d18106)"><g clip-path="url(#5f98c93947)"><path stroke-linecap="round" transform="matrix(-1.709904, 1.536386, -1.536386, -1.709904, 512.034235, 222.423941)" fill="none" stroke-linejoin="miter" d="M 165.000045 99.99987 C 164.999146 101.063632 164.974121 102.126278 164.921436 103.189199 C 164.86875 104.252119 164.790675 105.312787 164.68721 106.371203 C 164.583745 107.429618 164.45249 108.485908 164.295718 109.537547 C 164.14021 110.590321 163.95792 111.637306 163.751375 112.680775 C 163.543567 113.723108 163.311505 114.761925 163.051397 115.793817 C 162.793689 116.825581 162.510335 117.850293 162.201334 118.867952 C 161.892333 119.885612 161.557687 120.896219 161.200929 121.898382 C 160.842908 122.899409 160.459112 123.890984 160.052069 124.875379 C 159.644899 125.857373 159.214353 126.829788 158.759169 127.791486 C 158.303985 128.753185 157.826433 129.701639 157.325507 130.640514 C 156.823317 131.578252 156.300024 132.503882 155.751964 133.416397 C 155.206303 134.328783 154.635875 135.228053 154.045352 136.111552 C 153.453693 136.996314 152.841938 137.865305 152.208951 138.719787 C 151.574829 139.575534 150.920483 140.413108 150.246041 141.234911 C 149.570463 142.057978 148.877061 142.862744 148.161164 143.651867 C 147.446402 144.439726 146.713816 145.209285 145.962269 145.961808 C 145.209459 146.713195 144.440089 147.447418 143.65163 148.162205 C 142.863171 148.876992 142.057895 149.569815 141.236059 150.245474 C 140.412959 150.919998 139.57557 151.574829 138.720229 152.20896 C 137.866023 152.841827 136.996265 153.453866 136.112217 154.046213 C 135.228042 154.63616 134.328313 155.20528 133.416567 155.752178 C 132.504821 156.299077 131.578658 156.823884 130.64035 157.324071 C 129.702169 157.826657 128.751843 158.304624 127.790636 158.759106 C 126.829428 159.213588 125.857339 159.644586 124.874368 160.0521 C 123.891397 160.459613 122.89868 160.842378 121.898617 161.200267 C 120.896154 161.558284 119.886345 161.891424 118.868055 162.200952 C 117.8509 162.509216 116.825263 162.793867 115.793415 163.052378 C 114.761568 163.310889 113.72351 163.543259 112.680506 163.750624 C 111.637501 163.957989 110.589551 164.140349 109.537789 164.296441 C 108.486028 164.452533 107.430456 164.582355 106.371073 164.685909 C 105.312954 164.790599 104.252289 164.870155 103.188948 164.922179 C 102.126744 164.972938 101.063256 164.9997 100.000758 164.999937 C 98.935859 165.000302 97.873085 164.972878 96.811429 164.921328 C 95.747372 164.869907 94.68784 164.790567 93.629425 164.687102 C 92.569745 164.582502 91.514719 164.452383 90.461945 164.296875 C 89.410307 164.140102 88.362185 163.959076 87.319852 163.751268 C 86.275119 163.543588 85.237439 163.310262 84.205675 163.052554 C 83.175046 162.793582 82.14907 162.509092 81.131411 162.200091 C 80.112615 161.892354 79.103272 161.558843 78.102245 161.200822 C 77.099954 160.841664 76.108507 160.460268 75.125249 160.051962 C 74.143254 159.644791 73.170839 159.214246 72.209141 158.759062 C 71.247442 158.303877 70.296588 157.826454 69.35885 157.324264 C 68.419975 156.823338 67.495481 156.298781 66.583095 155.75312 C 65.67058 155.20506 64.772574 154.635768 63.88794 154.046509 C 63.003177 153.454849 62.134187 152.843094 61.279576 152.207708 C 60.425094 151.574722 59.587519 150.920376 58.764452 150.244798 C 57.942649 149.570356 57.136619 148.875818 56.34876 148.161056 C 55.559765 147.447558 54.790206 146.714972 54.038819 145.962162 C 53.285032 145.20948 52.553209 144.439981 51.838422 143.651522 C 51.123635 142.863064 50.428412 142.057916 49.753889 141.234816 C 49.079494 140.414116 48.425799 139.575463 47.791667 138.720122 C 47.1588 137.865916 46.545625 136.997421 45.954414 136.11211 C 45.363203 135.226799 44.794212 134.32947 44.248449 133.41646 C 43.700286 132.503578 43.176743 131.578551 42.675421 130.641506 C 42.17397 129.702062 41.694868 128.753 41.240385 127.791792 C 40.785903 126.830585 40.354777 125.856096 39.948528 124.87426 C 39.541014 123.89129 39.158249 122.898573 38.799096 121.897374 C 38.441207 120.897311 38.106803 119.886366 37.798539 118.869211 C 37.490147 117.849656 37.20676 116.825155 36.948249 115.793308 C 36.689739 114.76146 36.456233 113.724666 36.248868 112.681662 C 36.041502 111.638658 35.860278 110.589443 35.704186 109.537682 C 35.546831 108.484785 35.417008 107.429213 35.312318 106.371094 C 35.208765 105.311711 35.130472 104.252181 35.078449 103.188841 C 35.025289 102.126764 34.999791 101.064413 34.999426 99.999514 C 35.000325 98.935752 35.025349 97.873106 35.078035 96.810185 C 35.130721 95.747265 35.208796 94.686597 35.313525 93.629317 C 35.41699 92.570902 35.548244 91.514611 35.703753 90.461837 C 35.860525 89.410199 36.041551 88.362078 36.249359 87.319745 C 36.455903 86.276276 36.689229 85.238595 36.948073 84.205567 C 37.207046 83.174939 37.4904 82.150227 37.798137 81.131432 C 38.107137 80.113772 38.441784 79.103165 38.799805 78.102138 C 39.157827 77.101111 39.540359 76.1084 39.94753 75.126405 C 40.354572 74.142011 40.786381 73.170732 41.241566 72.209033 C 41.695486 71.246199 42.173037 70.297745 42.675227 69.360006 C 43.176153 68.421132 43.700711 67.496637 44.247507 66.582987 C 44.794432 65.671737 45.36246 64.772595 45.954119 63.887832 C 46.545778 63.00307 47.157533 62.134079 47.790519 61.279597 C 48.425905 60.424986 49.078988 59.586276 49.75343 58.764473 C 50.429007 57.941406 51.123673 57.137775 51.837171 56.348781 C 52.551933 55.560922 53.285655 54.790099 54.038465 54.038712 C 54.790011 53.286189 55.560646 52.553102 56.349105 51.838315 C 57.137564 51.123528 57.941575 50.429569 58.764675 49.755045 C 59.586511 49.079386 60.425164 48.425691 61.280506 47.79156 C 62.133447 47.157557 63.003206 46.545518 63.888517 45.954307 C 64.772693 45.364359 65.671157 44.794104 66.582903 44.247206 C 67.495913 43.701443 68.422076 43.176636 69.359121 42.675313 C 70.297301 42.172727 71.247627 41.69476 72.208835 41.240278 C 73.170042 40.785796 74.142132 40.354798 75.125103 39.947284 C 76.109338 39.540907 77.099655 39.15827 78.102118 38.800253 C 79.103316 38.4411 80.113125 38.10796 81.131416 37.798432 C 82.148571 37.490168 83.174208 37.205517 84.206055 36.947006 C 85.239167 36.689631 86.275961 36.456125 87.318965 36.24876 C 88.361969 36.041395 89.40992 35.859035 90.462945 35.704079 C 91.514707 35.547987 92.570279 35.418165 93.628398 35.313475 C 94.686516 35.208785 95.748446 35.130365 96.810522 35.077205 C 97.872727 35.026446 98.936214 34.999684 99.999977 35.000582 " stroke="#0a2540" stroke-width="18" stroke-opacity="1" stroke-miterlimit="4"/><path stroke-linecap="round" transform="matrix(-1.709904, 1.536386, -1.536386, -1.709904, 512.034235, 222.423941)" fill="none" stroke-linejoin="miter" d="M 99.999167 100.000324 C 100.819787 99.99978 101.63469 99.959832 102.451077 99.880096 C 103.2662 99.799225 104.07447 99.680214 104.876897 99.5194 C 105.680587 99.359722 106.473762 99.160898 107.257686 98.924062 C 108.040345 98.68609 108.811354 98.410236 109.567175 98.097891 C 110.322868 97.783147 111.063503 97.434312 111.785287 97.047979 C 112.507072 96.661646 113.208998 96.241479 113.889802 95.786341 C 114.569471 95.332468 115.226882 94.844889 115.859764 94.326132 C 116.492518 93.804976 117.098599 93.257569 117.677623 92.676712 C 118.256776 92.098256 118.805592 91.492542 119.325336 90.860706 C 119.844952 90.22647 120.332089 89.569904 120.786618 88.888609 C 121.242411 88.208449 121.66219 87.507352 122.048353 86.785189 C 122.434516 86.063026 122.783657 85.323589 123.09704 84.568014 C 123.410295 83.810039 123.685648 83.040854 123.924108 82.256795 C 124.161431 81.474 124.359718 80.681258 124.520103 79.877306 C 124.679352 79.074618 124.798557 78.265647 124.880116 77.450265 C 124.959276 76.635012 124.999912 75.819411 125.000632 74.999927 C 125.000216 74.181708 124.96014 73.364404 124.879269 72.549282 C 124.799661 71.735295 124.679386 70.925888 124.519708 70.122198 C 124.358895 69.319771 124.161206 68.525332 123.923234 67.742673 C 123.686398 66.958749 123.410672 66.190141 123.097064 65.433184 C 122.783455 64.676227 122.433484 63.936856 122.047151 63.215071 C 121.661954 62.492023 121.240651 61.791361 120.786778 61.111692 C 120.331641 60.430888 119.844062 59.773477 119.325305 59.140595 C 118.805284 58.506577 118.256741 57.90176 117.678284 57.322607 C 117.098564 56.742319 116.49285 56.193503 115.859878 55.675023 C 115.228042 55.155278 114.569077 54.66827 113.888917 54.212477 C 113.208886 53.759083 112.506525 53.338169 111.784362 52.952006 C 111.062199 52.565842 110.322762 52.216701 109.567187 51.903318 C 108.810347 51.5888 108.040027 51.31471 107.257231 51.077387 C 106.473172 50.838928 105.68043 50.640641 104.876478 50.480256 C 104.07379 50.321007 103.265955 50.200538 102.449438 50.120242 C 101.63532 50.039818 100.818583 50.000446 100.000364 50.000862 C 99.18088 50.000143 98.363577 50.040219 97.54959 50.119826 C 96.734467 50.200698 95.925061 50.320972 95.122506 50.479386 C 94.32008 50.6402 93.526905 50.839025 92.742981 51.075861 C 91.959186 51.315096 91.189313 51.589686 90.432356 51.903295 C 89.676535 52.21564 88.937164 52.56561 88.21538 52.951944 C 87.493595 53.338277 86.791669 53.758444 86.110864 54.213581 C 85.43006 54.668718 84.773785 55.155033 84.139767 55.675054 C 83.506885 56.193811 82.900932 56.743618 82.32178 57.322074 C 81.743891 57.901667 81.195075 58.507381 80.674195 59.140481 C 80.155715 59.773453 79.668578 60.430018 79.212785 61.110178 C 78.758256 61.791473 78.338477 62.49257 77.952314 63.214733 C 77.566151 63.936896 77.217009 64.676333 76.902491 65.433172 C 76.589108 66.188747 76.315018 66.959068 76.076559 67.743128 C 75.839236 68.525923 75.639813 69.319929 75.480564 70.122617 C 75.321315 70.925305 75.200974 71.735539 75.12055 72.549657 C 75.040126 73.363775 74.999619 74.181775 75.000035 74.999995 C 75.000451 75.818215 75.040527 76.635518 75.120134 77.449505 C 75.201006 78.264627 75.32128 79.074034 75.480958 79.877724 C 75.639372 80.680279 75.838197 81.473454 76.077433 82.257249 C 76.314268 83.041173 76.588859 83.811045 76.903603 84.566739 C 77.217212 85.323696 77.565919 86.061931 77.951116 86.784979 C 78.337449 87.506764 78.757616 88.20869 79.212753 88.889494 C 79.66789 89.570299 80.15547 90.22771 80.675362 90.859328 C 81.194119 91.49221 81.743926 92.098163 82.322382 92.677315 C 82.900839 93.256467 83.507817 93.80642 84.140789 94.3249 C 84.772625 94.844644 85.429191 95.331781 86.110486 95.78631 C 86.791781 96.240839 87.493007 96.663017 88.21517 97.049181 C 88.937204 97.432944 89.67677 97.784485 90.43348 98.096604 C 91.189055 98.409987 91.959505 98.686476 92.7423 98.9238 C 93.526359 99.162259 94.320237 99.359281 95.121789 99.519795 C 95.925741 99.68018 96.734712 99.799384 97.548829 99.879808 C 98.365347 99.960104 99.180948 100.00074 99.999167 100.000324 Z M 99.999167 100.000324 " stroke="url(#d6bb406332)" stroke-width="18" stroke-miterlimit="4"/></g></g></g></svg>